<!-- account_balance_24dp_E8EAED_FILL0_wght400_GRAD0_opsz24.svg  -->
<svg xmlns="http://www.w3.org/2000/svg" height="24px" viewBox="0 -960 960 960" width="24px" fill="#e8eaed"><path d="M200-280v-280h80v280h-80Zm240 0v-280h80v280h-80ZM80-120v-80h800v80H80Zm600-160v-280h80v280h-80ZM80-640v-80l400-200 400 200v80H80Zm178-80h444-444Zm0 0h444L480-830 258-720Z"/></svg>

<!-- arrow_drop_down_24dp_E8EAED_FILL0_wght400_GRAD0_opsz24.svg -->
<svg xmlns="http://www.w3.org/2000/svg" height="24px" viewBox="0 -960 960 960" width="24px" fill="#e8eaed"><path d="M480-360 280-560h400L480-360Z"/></svg>

<!-- arrow_drop_up_24dp_E8EAED_FILL0_wght400_GRAD0_opsz24.svg -->
<svg xmlns="http://www.w3.org/2000/svg" height="24px" viewBox="0 -960 960 960" width="24px" fill="#e8eaed"><path d="m280-400 200-200 200 200H280Z"/></svg>